<svg width="563" height="139" viewBox="0 0 563 139" fill="none" xmlns="http://www.w3.org/2000/svg">
<path fill-rule="evenodd" clip-rule="evenodd" d="M104.273 121.606C104.273 126.218 101.868 130.573 97.6624 132.466C88.9973 136.365 79.3856 138.534 69.2672 138.534C31.012 138.534 0 107.522 0 69.2672C0 31.012 31.012 0 69.2672 0C107.522 0 138.534 31.012 138.534 69.2672C138.534 78.8372 136.594 87.9539 133.084 96.2453C131.251 100.577 126.821 103.082 122.117 103.082H116.786C109.875 103.082 104.273 108.684 104.273 115.594V121.606ZM76.3681 106.259C72.5286 110.098 66.3037 110.098 62.4643 106.259L32.7607 76.5555C28.9213 72.716 28.9213 66.4911 32.7607 62.6516L62.4643 32.9481C66.3037 29.1086 72.5286 29.1086 76.3681 32.9481L106.072 62.6516C109.911 66.4911 109.911 72.716 106.072 76.5555L76.3681 106.259Z" fill="#7436F5"/>
<path d="M180.417 95.7122C176.146 95.7122 172.386 94.9695 169.137 93.4841C165.887 91.9522 163.149 89.933 160.92 87.4263C158.739 84.8732 157.091 82.0184 155.977 78.8618C154.909 75.7053 154.375 72.4791 154.375 69.1833C154.375 65.8874 154.909 62.6845 155.977 59.5743C157.091 56.4178 158.739 53.5862 160.92 51.0795C163.149 48.5728 165.887 46.5768 169.137 45.0913C172.386 43.5595 176.146 42.7935 180.417 42.7935C184.734 42.7935 188.517 43.5595 191.766 45.0913C195.016 46.5768 197.731 48.5728 199.913 51.0795C202.095 53.5862 203.72 56.4178 204.787 59.5743C205.901 62.6845 206.458 65.8874 206.458 69.1833C206.458 72.3862 205.948 75.5428 204.927 78.6529C203.905 81.7631 202.35 84.5483 200.261 87.0085L207.433 95.0159H196.014L193.716 92.4396C191.859 93.4609 189.817 94.2732 187.589 94.8767C185.407 95.4337 183.016 95.7122 180.417 95.7122ZM180.417 86.0337C182.691 86.0337 184.757 85.5927 186.614 84.7107L178.746 76.0766L185.43 70.5062L192.881 78.7922C194.505 75.9606 195.318 72.7576 195.318 69.1833C195.318 66.3516 194.761 63.6593 193.646 61.1062C192.532 58.5531 190.861 56.4642 188.633 54.8395C186.405 53.2148 183.666 52.4025 180.417 52.4025C177.167 52.4025 174.429 53.2148 172.2 54.8395C170.019 56.4642 168.371 58.5531 167.257 61.1062C166.143 63.6593 165.586 66.3516 165.586 69.1833C165.586 72.0149 166.143 74.7304 167.257 77.33C168.371 79.883 170.019 81.9719 172.2 83.5966C174.429 85.2213 177.167 86.0337 180.417 86.0337Z" fill="white"/>
<path d="M219.77 95.7122C217.17 95.7122 215.012 95.1552 213.294 94.0411C211.623 92.927 210.37 91.4416 209.534 89.5848C208.699 87.6816 208.281 85.5463 208.281 83.1789V58.1121H218.795V81.09C218.795 82.8539 219.259 84.2929 220.187 85.407C221.116 86.4747 222.485 87.0085 224.296 87.0085C225.827 87.0085 227.034 86.6371 227.916 85.8944C228.845 85.1517 229.518 84.2001 229.936 83.0396C230.353 81.8791 230.562 80.649 230.562 79.3492V58.1121H241.146V95.0159H230.562V89.7937H230.145C229.355 91.2327 228.125 92.5789 226.454 93.8322C224.829 95.0856 222.601 95.7122 219.77 95.7122Z" fill="white"/>
<path d="M250.608 53.0988C248.751 53.0988 247.243 52.5185 246.082 51.358C244.922 50.1511 244.341 48.7353 244.341 47.1106C244.341 45.393 244.922 43.954 246.082 42.7935C247.243 41.5866 248.751 40.9832 250.608 40.9832C252.372 40.9832 253.857 41.5866 255.064 42.7935C256.271 43.954 256.875 45.393 256.875 47.1106C256.875 48.7353 256.271 50.1511 255.064 51.358C253.857 52.5185 252.372 53.0988 250.608 53.0988ZM245.316 95.0159V58.1121H255.9V95.0159H245.316Z" fill="white"/>
<path d="M278.801 95.7122C275.552 95.7122 272.72 95.1784 270.306 94.1108C267.892 92.9967 265.896 91.5345 264.318 89.7241C262.74 87.9137 261.556 85.8712 260.767 83.5966C259.978 81.2756 259.583 78.9314 259.583 76.564C259.583 74.1966 259.978 71.8756 260.767 69.601C261.556 67.3265 262.74 65.284 264.318 63.4736C265.896 61.6168 267.892 60.1546 270.306 59.0869C272.72 57.9728 275.552 57.4158 278.801 57.4158C282.097 57.4158 284.812 57.9032 286.948 58.878C289.083 59.8064 290.777 60.9901 292.031 62.4292C293.331 63.8218 294.282 65.2376 294.886 66.6766C295.489 68.0692 295.86 69.2529 296 70.2277C296.185 71.1561 296.278 71.6203 296.278 71.6203H286.391C286.391 71.6203 286.298 71.3418 286.112 70.7847C285.973 70.1813 285.648 69.5082 285.137 68.7655C284.673 67.9763 283.954 67.3032 282.979 66.7462C282.004 66.1428 280.704 65.841 279.08 65.841C277.084 65.841 275.412 66.3516 274.066 67.3729C272.767 68.3477 271.792 69.6475 271.142 71.2722C270.492 72.8969 270.167 74.6608 270.167 76.564C270.167 78.4672 270.492 80.2312 271.142 81.8559C271.792 83.4806 272.767 84.8036 274.066 85.8248C275.412 86.7996 277.084 87.287 279.08 87.287C280.704 87.287 282.004 87.0085 282.979 86.4515C283.954 85.848 284.673 85.1749 285.137 84.4322C285.648 83.6431 285.973 82.97 286.112 82.4129C286.298 81.8095 286.391 81.5077 286.391 81.5077H296.278C296.278 81.5077 296.185 81.9952 296 82.97C295.86 83.8984 295.489 85.0821 294.886 86.5211C294.282 87.9137 293.331 89.3295 292.031 90.7685C290.777 92.1611 289.083 93.3448 286.948 94.3196C284.812 95.248 282.097 95.7122 278.801 95.7122Z" fill="white"/>
<path d="M299.684 95.0159V42.0972H310.267V72.5951L322.453 58.1121H334.498L320.015 74.9625L335.125 95.0159H322.661L310.267 78.444V95.0159H299.684Z" fill="white"/>
<path d="M347.666 95.0159V43.4898H368.903C373.127 43.4898 376.632 44.3254 379.417 45.9965C382.248 47.6676 384.361 49.8261 385.753 52.4721C387.192 55.0716 387.912 57.7872 387.912 60.6188C387.912 63.5432 387.192 66.3284 385.753 68.9744C384.361 71.5739 382.248 73.7092 379.417 75.3803C376.632 77.0514 373.127 77.887 368.903 77.887H358.389V95.0159H347.666ZM368.903 52.8899H358.389V68.5566H368.903C370.713 68.5566 372.222 68.1852 373.429 67.4425C374.636 66.6534 375.541 65.6786 376.144 64.5181C376.794 63.3111 377.119 62.0346 377.119 60.6884C377.119 59.3887 376.794 58.1353 376.144 56.9284C375.541 55.7215 374.636 54.7467 373.429 54.0039C372.222 53.2612 370.713 52.8899 368.903 52.8899Z" fill="white"/>
<path d="M406.388 95.7122C402.256 95.7122 398.751 94.8303 395.873 93.0663C392.995 91.2559 390.79 88.9117 389.259 86.0337C387.773 83.1092 387.03 79.9527 387.03 76.564C387.03 73.1754 387.773 70.042 389.259 67.164C390.79 64.2395 392.995 61.8953 395.873 60.1314C398.751 58.321 402.256 57.4158 406.388 57.4158C410.519 57.4158 414.024 58.321 416.902 60.1314C419.78 61.8953 421.961 64.2395 423.447 67.164C424.979 70.042 425.745 73.1754 425.745 76.564C425.745 79.9527 424.979 83.1092 423.447 86.0337C421.961 88.9117 419.78 91.2559 416.902 93.0663C414.024 94.8303 410.519 95.7122 406.388 95.7122ZM406.388 87.0781C408.244 87.0781 409.799 86.5907 411.053 85.6159C412.352 84.6411 413.35 83.3645 414.047 81.7863C414.743 80.1616 415.091 78.4208 415.091 76.564C415.091 74.6608 414.743 72.9201 414.047 71.3418C413.35 69.7635 412.352 68.487 411.053 67.5121C409.799 66.5373 408.244 66.0499 406.388 66.0499C404.531 66.0499 402.952 66.5373 401.653 67.5121C400.353 68.487 399.355 69.7635 398.659 71.3418C398.009 72.9201 397.684 74.6608 397.684 76.564C397.684 78.4208 398.009 80.1616 398.659 81.7863C399.355 83.3645 400.353 84.6411 401.653 85.6159C402.952 86.5907 404.531 87.0781 406.388 87.0781Z" fill="white"/>
<path d="M446.865 95.7122C443.615 95.7122 440.784 95.1784 438.37 94.1108C435.956 92.9967 433.96 91.5345 432.382 89.7241C430.803 87.9137 429.62 85.8712 428.831 83.5966C428.042 81.2756 427.647 78.9314 427.647 76.564C427.647 74.1966 428.042 71.8756 428.831 69.601C429.62 67.3265 430.803 65.284 432.382 63.4736C433.96 61.6168 435.956 60.1546 438.37 59.0869C440.784 57.9728 443.615 57.4158 446.865 57.4158C450.161 57.4158 452.876 57.9032 455.011 58.878C457.147 59.8064 458.841 60.9901 460.094 62.4292C461.394 63.8218 462.346 65.2376 462.949 66.6766C463.553 68.0692 463.924 69.2529 464.063 70.2277C464.249 71.1561 464.342 71.6203 464.342 71.6203H454.454C454.454 71.6203 454.362 71.3418 454.176 70.7847C454.037 70.1813 453.712 69.5082 453.201 68.7655C452.737 67.9763 452.017 67.3032 451.043 66.7462C450.068 66.1428 448.768 65.841 447.143 65.841C445.147 65.841 443.476 66.3516 442.13 67.3729C440.83 68.3477 439.855 69.6475 439.206 71.2722C438.556 72.8969 438.231 74.6608 438.231 76.564C438.231 78.4672 438.556 80.2312 439.206 81.8559C439.855 83.4806 440.83 84.8036 442.13 85.8248C443.476 86.7996 445.147 87.287 447.143 87.287C448.768 87.287 450.068 87.0085 451.043 86.4515C452.017 85.848 452.737 85.1749 453.201 84.4322C453.712 83.6431 454.037 82.97 454.176 82.4129C454.362 81.8095 454.454 81.5077 454.454 81.5077H464.342C464.342 81.5077 464.249 81.9952 464.063 82.97C463.924 83.8984 463.553 85.0821 462.949 86.5211C462.346 87.9137 461.394 89.3295 460.094 90.7685C458.841 92.1611 457.147 93.3448 455.011 94.3196C452.876 95.248 450.161 95.7122 446.865 95.7122Z" fill="white"/>
<path d="M467.747 95.0159V42.0972H478.331V72.5951L490.516 58.1121H502.562L488.079 74.9625L503.189 95.0159H490.725L478.331 78.444V95.0159H467.747Z" fill="white"/>
<path d="M519.522 95.7122C516.273 95.7122 513.464 95.1784 511.097 94.1108C508.729 92.9967 506.78 91.5345 505.248 89.7241C503.716 87.8673 502.555 85.8016 501.766 83.527C501.024 81.2524 500.652 78.9082 500.652 76.4944C500.652 74.1734 501 71.8988 501.697 69.6707C502.439 67.3961 503.553 65.3304 505.039 63.4736C506.571 61.6168 508.497 60.1546 510.818 59.0869C513.186 57.9728 515.971 57.4158 519.174 57.4158C522.562 57.4158 525.557 58.1585 528.156 59.644C530.802 61.1294 532.868 63.3343 534.353 66.2588C535.839 69.1368 536.581 72.6415 536.581 76.7729V79.3492H511.306C511.445 81.5774 512.211 83.5038 513.603 85.1285C515.042 86.7532 517.015 87.5655 519.522 87.5655C520.961 87.5655 522.121 87.3567 523.003 86.9389C523.932 86.4747 524.651 85.9641 525.162 85.407C525.673 84.8036 526.021 84.2697 526.206 83.8055C526.392 83.3413 526.485 83.1092 526.485 83.1092H536.233C536.233 83.1092 536.117 83.5502 535.885 84.4322C535.699 85.2678 535.281 86.3122 534.632 87.5655C533.982 88.8189 533.03 90.0722 531.777 91.3256C530.57 92.5789 528.968 93.6233 526.972 94.4589C524.976 95.2945 522.493 95.7122 519.522 95.7122ZM511.306 72.9433H526.415C526.276 70.3902 525.51 68.487 524.117 67.2336C522.725 65.9803 521.007 65.3536 518.965 65.3536C516.922 65.3536 515.182 66.0267 513.743 67.3729C512.304 68.6726 511.491 70.5294 511.306 72.9433Z" fill="white"/>
<path d="M555.827 95.7122C552.949 95.7122 550.651 95.2945 548.933 94.4589C547.216 93.5769 545.916 92.4861 545.034 91.1863C544.152 89.8401 543.572 88.4243 543.293 86.9389C543.015 85.4534 542.876 84.0841 542.876 82.8307V66.5373H536.609V58.1121H542.876V48.9906H553.459V58.1121H561.328V66.5373H553.459V82.5522C553.459 84.0841 553.854 85.2678 554.643 86.1033C555.479 86.9389 556.848 87.3567 558.751 87.3567C559.587 87.3567 560.353 87.287 561.049 87.1478C561.745 87.0085 562.094 86.9389 562.094 86.9389V95.0856C562.094 95.0856 561.467 95.1784 560.214 95.3641C558.96 95.5962 557.498 95.7122 555.827 95.7122Z" fill="white"/>
</svg>
