<svg width="1648" height="329" viewBox="0 0 1648 329" fill="none" xmlns="http://www.w3.org/2000/svg">
<path d="M597.214 241.396C585.463 241.396 575.117 239.353 566.176 235.265C557.235 231.05 549.698 225.494 543.567 218.597C537.564 211.571 533.03 203.716 529.964 195.031C527.027 186.345 525.558 177.468 525.558 168.399C525.558 159.33 527.027 150.517 529.964 141.959C533.03 133.273 537.564 125.482 543.567 118.584C549.698 111.687 557.235 106.195 566.176 102.107C575.117 97.8922 585.463 95.7847 597.214 95.7847C609.093 95.7847 619.503 97.8922 628.444 102.107C637.385 106.195 644.857 111.687 650.86 118.584C656.864 125.482 661.334 133.273 664.272 141.959C667.337 150.517 668.87 159.33 668.87 168.399C668.87 177.212 667.465 185.898 664.655 194.456C661.845 203.014 657.566 210.677 651.818 217.447L671.552 239.48H640.131L633.808 232.391C628.699 235.201 623.079 237.437 616.948 239.097C610.945 240.63 604.367 241.396 597.214 241.396ZM597.214 214.765C603.473 214.765 609.157 213.551 614.266 211.124L592.616 187.367L611.009 172.039L631.509 194.839C635.98 187.047 638.215 178.234 638.215 168.399C638.215 160.607 636.682 153.199 633.617 146.174C630.551 139.149 625.953 133.401 619.822 128.93C613.691 124.46 606.155 122.225 597.214 122.225C588.273 122.225 580.737 124.46 574.606 128.93C568.602 133.401 564.068 139.149 561.003 146.174C557.937 153.199 556.404 160.607 556.404 168.399C556.404 176.19 557.937 183.663 561.003 190.815C564.068 197.841 568.602 203.588 574.606 208.059C580.737 212.529 588.273 214.765 597.214 214.765Z" fill="white"/>
<path d="M705.498 241.396C698.345 241.396 692.405 239.864 687.679 236.798C683.081 233.733 679.632 229.645 677.333 224.536C675.034 219.299 673.884 213.424 673.884 206.909V137.935H702.815V201.162C702.815 206.015 704.093 209.975 706.647 213.04C709.202 215.978 712.97 217.447 717.951 217.447C722.166 217.447 725.487 216.425 727.914 214.382C730.469 212.338 732.321 209.719 733.47 206.526C734.62 203.333 735.195 199.948 735.195 196.372V137.935H764.317V239.48H735.195V225.111H734.045C731.874 229.07 728.489 232.775 723.891 236.223C719.42 239.672 713.289 241.396 705.498 241.396Z" fill="white"/>
<path d="M790.353 124.141C785.244 124.141 781.092 122.544 777.899 119.351C774.706 116.03 773.109 112.134 773.109 107.664C773.109 102.938 774.706 98.9779 777.899 95.7847C781.092 92.4637 785.244 90.8032 790.353 90.8032C795.207 90.8032 799.294 92.4637 802.615 95.7847C805.936 98.9779 807.596 102.938 807.596 107.664C807.596 112.134 805.936 116.03 802.615 119.351C799.294 122.544 795.207 124.141 790.353 124.141ZM775.792 239.48V137.935H804.914V239.48H775.792Z" fill="white"/>
<path d="M867.929 241.396C858.988 241.396 851.196 239.927 844.555 236.99C837.913 233.924 832.42 229.901 828.077 224.919C823.735 219.938 820.478 214.318 818.306 208.059C816.135 201.672 815.049 195.222 815.049 188.708C815.049 182.194 816.135 175.807 818.306 169.548C820.478 163.29 823.735 157.67 828.077 152.688C832.42 147.579 837.913 143.556 844.555 140.618C851.196 137.552 858.988 136.019 867.929 136.019C876.998 136.019 884.47 137.361 890.346 140.043C896.221 142.598 900.883 145.855 904.332 149.814C907.908 153.646 910.527 157.542 912.187 161.502C913.848 165.333 914.87 168.59 915.253 171.273C915.764 173.827 916.019 175.105 916.019 175.105H888.813C888.813 175.105 888.557 174.338 888.046 172.806C887.663 171.145 886.769 169.293 885.364 167.249C884.087 165.078 882.107 163.226 879.425 161.693C876.742 160.033 873.166 159.202 868.695 159.202C863.203 159.202 858.605 160.607 854.901 163.417C851.324 166.1 848.642 169.676 846.854 174.147C845.065 178.617 844.171 183.471 844.171 188.708C844.171 193.945 845.065 198.799 846.854 203.269C848.642 207.74 851.324 211.38 854.901 214.19C858.605 216.872 863.203 218.213 868.695 218.213C873.166 218.213 876.742 217.447 879.425 215.914C882.107 214.254 884.087 212.402 885.364 210.358C886.769 208.187 887.663 206.335 888.046 204.802C888.557 203.141 888.813 202.311 888.813 202.311H916.019C916.019 202.311 915.764 203.652 915.253 206.335C914.87 208.889 913.848 212.146 912.187 216.106C910.527 219.938 907.908 223.834 904.332 227.793C900.883 231.625 896.221 234.882 890.346 237.564C884.47 240.119 876.998 241.396 867.929 241.396Z" fill="white"/>
<path d="M925.389 239.48V93.8687H954.512V177.787L988.041 137.935H1021.19L981.335 184.301L1022.91 239.48H988.615L954.512 193.881V239.48H925.389Z" fill="white"/>
<path d="M1057.42 239.48V97.7006H1115.85C1127.48 97.7006 1137.12 99.9997 1144.78 104.598C1152.58 109.196 1158.39 115.136 1162.22 122.416C1166.18 129.569 1168.16 137.041 1168.16 144.833C1168.16 152.88 1166.18 160.544 1162.22 167.824C1158.39 174.977 1152.58 180.853 1144.78 185.451C1137.12 190.049 1127.48 192.348 1115.85 192.348H1086.92V239.48H1057.42ZM1115.85 123.566H1086.92V166.675H1115.85C1120.83 166.675 1124.99 165.653 1128.31 163.609C1131.63 161.438 1134.12 158.755 1135.78 155.562C1137.57 152.241 1138.46 148.729 1138.46 145.024C1138.46 141.448 1137.57 137.999 1135.78 134.678C1134.12 131.357 1131.63 128.675 1128.31 126.631C1124.99 124.588 1120.83 123.566 1115.85 123.566Z" fill="white"/>
<path d="M1219 241.396C1207.63 241.396 1197.99 238.969 1190.07 234.116C1182.15 229.134 1176.08 222.684 1171.86 214.765C1167.78 206.718 1165.73 198.032 1165.73 188.708C1165.73 179.384 1167.78 170.762 1171.86 162.843C1176.08 154.796 1182.15 148.345 1190.07 143.492C1197.99 138.51 1207.63 136.019 1219 136.019C1230.36 136.019 1240.01 138.51 1247.93 143.492C1255.85 148.345 1261.85 154.796 1265.94 162.843C1270.15 170.762 1272.26 179.384 1272.26 188.708C1272.26 198.032 1270.15 206.718 1265.94 214.765C1261.85 222.684 1255.85 229.134 1247.93 234.116C1240.01 238.969 1230.36 241.396 1219 241.396ZM1219 217.639C1224.11 217.639 1228.39 216.297 1231.83 213.615C1235.41 210.933 1238.16 207.42 1240.07 203.077C1241.99 198.607 1242.95 193.817 1242.95 188.708C1242.95 183.471 1241.99 178.681 1240.07 174.338C1238.16 169.996 1235.41 166.483 1231.83 163.801C1228.39 161.118 1224.11 159.777 1219 159.777C1213.89 159.777 1209.55 161.118 1205.97 163.801C1202.39 166.483 1199.65 169.996 1197.73 174.338C1195.94 178.681 1195.05 183.471 1195.05 188.708C1195.05 193.817 1195.94 198.607 1197.73 203.077C1199.65 207.42 1202.39 210.933 1205.97 213.615C1209.55 216.297 1213.89 217.639 1219 217.639Z" fill="white"/>
<path d="M1330.37 241.396C1321.43 241.396 1313.64 239.927 1307 236.99C1300.36 233.924 1294.87 229.901 1290.52 224.919C1286.18 219.938 1282.92 214.318 1280.75 208.059C1278.58 201.672 1277.49 195.222 1277.49 188.708C1277.49 182.194 1278.58 175.807 1280.75 169.548C1282.92 163.29 1286.18 157.67 1290.52 152.688C1294.87 147.579 1300.36 143.556 1307 140.618C1313.64 137.552 1321.43 136.019 1330.37 136.019C1339.44 136.019 1346.92 137.361 1352.79 140.043C1358.67 142.598 1363.33 145.855 1366.78 149.814C1370.35 153.646 1372.97 157.542 1374.63 161.502C1376.29 165.333 1377.32 168.59 1377.7 171.273C1378.21 173.827 1378.46 175.105 1378.46 175.105H1351.26C1351.26 175.105 1351 174.338 1350.49 172.806C1350.11 171.145 1349.21 169.293 1347.81 167.249C1346.53 165.078 1344.55 163.226 1341.87 161.693C1339.19 160.033 1335.61 159.202 1331.14 159.202C1325.65 159.202 1321.05 160.607 1317.35 163.417C1313.77 166.1 1311.09 169.676 1309.3 174.147C1307.51 178.617 1306.62 183.471 1306.62 188.708C1306.62 193.945 1307.51 198.799 1309.3 203.269C1311.09 207.74 1313.77 211.38 1317.35 214.19C1321.05 216.872 1325.65 218.213 1331.14 218.213C1335.61 218.213 1339.19 217.447 1341.87 215.914C1344.55 214.254 1346.53 212.402 1347.81 210.358C1349.21 208.187 1350.11 206.335 1350.49 204.802C1351 203.141 1351.26 202.311 1351.26 202.311H1378.46C1378.46 202.311 1378.21 203.652 1377.7 206.335C1377.32 208.889 1376.29 212.146 1374.63 216.106C1372.97 219.938 1370.35 223.834 1366.78 227.793C1363.33 231.625 1358.67 234.882 1352.79 237.564C1346.92 240.119 1339.44 241.396 1330.37 241.396Z" fill="white"/>
<path d="M1387.83 239.48V93.8687H1416.96V177.787L1450.49 137.935H1483.63L1443.78 184.301L1485.36 239.48H1451.06L1416.96 193.881V239.48H1387.83Z" fill="white"/>
<path d="M1530.3 241.396C1521.36 241.396 1513.63 239.927 1507.12 236.99C1500.6 233.924 1495.24 229.901 1491.02 224.919C1486.81 219.81 1483.61 214.126 1481.44 207.867C1479.4 201.609 1478.38 195.158 1478.38 188.516C1478.38 182.13 1479.33 175.871 1481.25 169.74C1483.29 163.481 1486.36 157.797 1490.45 152.688C1494.66 147.579 1499.96 143.556 1506.35 140.618C1512.86 137.552 1520.53 136.019 1529.34 136.019C1538.67 136.019 1546.9 138.063 1554.06 142.15C1561.34 146.238 1567.02 152.305 1571.11 160.352C1575.2 168.271 1577.24 177.915 1577.24 189.283V196.372H1507.69C1508.07 202.503 1510.18 207.803 1514.01 212.274C1517.97 216.745 1523.4 218.98 1530.3 218.98C1534.26 218.98 1537.45 218.405 1539.88 217.255C1542.43 215.978 1544.41 214.573 1545.82 213.04C1547.22 211.38 1548.18 209.911 1548.69 208.634C1549.2 207.356 1549.46 206.718 1549.46 206.718H1576.28C1576.28 206.718 1575.96 207.931 1575.32 210.358C1574.81 212.657 1573.66 215.531 1571.87 218.98C1570.09 222.428 1567.47 225.877 1564.02 229.326C1560.7 232.775 1556.29 235.648 1550.8 237.948C1545.31 240.247 1538.47 241.396 1530.3 241.396ZM1507.69 178.745H1549.27C1548.88 171.72 1546.78 166.483 1542.94 163.034C1539.11 159.586 1534.39 157.861 1528.77 157.861C1523.15 157.861 1518.36 159.713 1514.4 163.417C1510.44 166.994 1508.2 172.103 1507.69 178.745Z" fill="white"/>
<path d="M1630.2 241.396C1622.28 241.396 1615.95 240.247 1611.23 237.948C1606.5 235.521 1602.93 232.519 1600.5 228.943C1598.07 225.239 1596.48 221.343 1595.71 217.255C1594.94 213.168 1594.56 209.4 1594.56 205.951V161.118H1577.32V137.935H1594.56V112.837H1623.68V137.935H1645.33V161.118H1623.68V205.185C1623.68 209.4 1624.77 212.657 1626.94 214.956C1629.24 217.255 1633.01 218.405 1638.24 218.405C1640.54 218.405 1642.65 218.213 1644.57 217.83C1646.48 217.447 1647.44 217.255 1647.44 217.255V239.672C1647.44 239.672 1645.71 239.927 1642.27 240.438C1638.82 241.077 1634.79 241.396 1630.2 241.396Z" fill="white"/>
<path fill-rule="evenodd" clip-rule="evenodd" d="M0 171.288C0 231.726 48.9952 280.722 109.434 280.722C125.768 280.722 141.266 277.143 155.187 270.727L206.47 326.671C210.868 331.47 218.868 328.358 218.868 321.849V171.288C218.868 110.849 169.872 61.854 109.434 61.854C48.9952 61.854 0 110.849 0 171.288ZM109.434 233.142C143.595 233.142 171.288 205.449 171.288 171.288C171.288 137.127 143.595 109.434 109.434 109.434C75.2728 109.434 47.5799 137.127 47.5799 171.288C47.5799 205.449 75.2728 233.142 109.434 233.142Z" fill="#7436F5"/>
<path fill-rule="evenodd" clip-rule="evenodd" d="M456.767 109.434C456.767 169.872 407.772 218.868 347.334 218.868C330.999 218.868 315.501 215.289 301.58 208.873L250.298 264.817C245.899 269.616 237.9 266.504 237.9 259.995V109.434C237.9 48.9952 286.895 0 347.334 0C407.772 0 456.767 48.9952 456.767 109.434ZM347.334 171.288C313.173 171.288 285.48 143.595 285.48 109.434C285.48 75.2728 313.173 47.5799 347.334 47.5799C381.494 47.5799 409.187 75.2728 409.187 109.434C409.187 143.595 381.494 171.288 347.334 171.288Z" fill="#7436F5"/>
</svg>
